<svg width="40" height="40" viewBox="0 0 40 40" fill="none" xmlns="http://www.w3.org/2000/svg">
<path d="M36 18.7L28.3334 12.5333V8.33333C28.3742 7.49157 28.0795 6.66797 27.514 6.04311C26.9485 5.41825 26.1583 5.04313 25.3167 5H6.31669C5.48097 5.0516 4.69923 5.43039 4.14082 6.05431C3.58242 6.67822 3.29231 7.49703 3.33336 8.33333V25C3.31789 25.6618 3.49985 26.3133 3.85604 26.8713C4.21223 27.4294 4.72653 27.8687 5.33336 28.1333C5.02642 28.8842 4.90679 29.6986 4.9848 30.506C5.06282 31.3135 5.33612 32.0898 5.78115 32.7681C6.22617 33.4464 6.82954 34.0062 7.53919 34.3992C8.24885 34.7922 9.04348 35.0067 9.85451 35.024C10.6655 35.0414 11.4686 34.8612 12.1945 34.4989C12.9203 34.1367 13.5471 33.6032 14.0208 32.9447C14.4944 32.2861 14.8008 31.5222 14.9133 30.7188C15.0258 29.9154 14.9412 29.0967 14.6667 28.3333H25.2667C24.9926 29.0886 24.9045 29.8987 25.0099 30.6952C25.1153 31.4917 25.4111 32.251 25.8722 32.9089C26.3333 33.5668 26.9462 34.104 27.6589 34.4748C28.3717 34.8456 29.1633 35.0392 29.9667 35.0392C30.7701 35.0392 31.5617 34.8456 32.2744 34.4748C32.9872 34.104 33.6 33.5668 34.0612 32.9089C34.5223 32.251 34.8181 31.4917 34.9235 30.6952C35.0289 29.8987 34.9408 29.0886 34.6667 28.3333H35C35.4421 28.3333 35.866 28.1577 36.1785 27.8452C36.4911 27.5326 36.6667 27.1087 36.6667 26.6667V20C36.6616 19.7469 36.5989 19.4983 36.4834 19.2731C36.3679 19.0478 36.2026 18.8518 36 18.7ZM33.3334 20.8V25H28.3334V16.8L33.3334 20.8ZM11.6667 30C11.6667 30.3296 11.5689 30.6519 11.3858 30.926C11.2027 31.2 10.9424 31.4137 10.6378 31.5398C10.3333 31.6659 9.99818 31.6989 9.67488 31.6346C9.35157 31.5703 9.0546 31.4116 8.82152 31.1785C8.58843 30.9454 8.42969 30.6485 8.36538 30.3252C8.30108 30.0019 8.33408 29.6667 8.46023 29.3622C8.58637 29.0577 8.79999 28.7974 9.07408 28.6142C9.34816 28.4311 9.67039 28.3333 10 28.3333C10.4421 28.3333 10.866 28.5089 11.1785 28.8215C11.4911 29.134 11.6667 29.558 11.6667 30ZM31.6667 30C31.6667 30.3296 31.5689 30.6519 31.3858 30.926C31.2027 31.2 30.9424 31.4137 30.6378 31.5398C30.3333 31.6659 29.9982 31.6989 29.6749 31.6346C29.3516 31.5703 29.0546 31.4116 28.8215 31.1785C28.5884 30.9454 28.4297 30.6485 28.3654 30.3252C28.3011 30.0019 28.3341 29.6667 28.4602 29.3622C28.5864 29.0577 28.8 28.7974 29.0741 28.6142C29.3482 28.4311 29.6704 28.3333 30 28.3333C30.4421 28.3333 30.866 28.5089 31.1785 28.8215C31.4911 29.134 31.6667 29.558 31.6667 30Z" fill="white"/>
</svg>
