<svg width="93" height="93" viewBox="0 0 93 93" fill="none" xmlns="http://www.w3.org/2000/svg">
<path d="M62.6462 84.2643H30.3352C29.4374 84.2643 28.5764 83.9077 27.9416 83.2729C27.3067 82.638 26.9501 81.777 26.9501 80.8792V41.9723C26.9491 41.7405 26.9964 41.5109 27.0889 41.2983C27.1815 41.0857 27.3173 40.8947 27.4876 40.7374L44.6456 24.6981C44.9558 24.4164 45.3598 24.2603 45.7788 24.2603C46.1979 24.2603 46.6019 24.4164 46.912 24.6981L65.4502 40.6793C65.6318 40.8393 65.7775 41.036 65.8777 41.2563C65.9779 41.4767 66.0302 41.7158 66.0313 41.9578V80.9228C66.0199 81.813 65.6582 82.6629 65.0246 83.2883C64.391 83.9138 63.5365 84.2644 62.6462 84.2643V84.2643Z" stroke="#E47F31" stroke-width="4.3585" stroke-linecap="round"/>
<path d="M46.4907 36.6113C40.1128 36.6113 34.9407 30.3496 34.9407 22.6351C34.9407 14.9205 40.1128 8.71692 46.4907 8.71692C52.8687 8.71692 58.1134 14.9641 58.1134 22.6787" stroke="#E47F31" stroke-width="4.3585" stroke-linecap="round"/>
<path d="M57.7937 68.1088C56.1373 69.3723 54.1752 70.1735 52.1078 70.4304C50.0404 70.6874 47.9418 70.3909 46.0265 69.5713C44.1112 68.7516 42.4478 67.4382 41.2063 65.7653C39.9648 64.0923 39.1897 62.1197 38.9601 60.0491C38.7305 57.9785 39.0548 55.884 39.8997 53.9797C40.7446 52.0755 42.0799 50.4296 43.7691 49.2103C45.4583 47.991 47.441 47.2421 49.5145 47.0399C51.588 46.8378 53.6779 47.1897 55.5709 48.0597" stroke="#E47F31" stroke-width="4.3585"/>
<path d="M32.9502 55.3093H52.5489" stroke="#E47F31" stroke-width="4.3585"/>
<path d="M32.9502 62.6461H50.1808" stroke="#E47F31" stroke-width="4.3585"/>
</svg>
