<svg width="93" height="93" viewBox="0 0 93 93" fill="none" xmlns="http://www.w3.org/2000/svg">
<path d="M46.4907 75.0099C62.8271 75.0099 76.0704 61.7666 76.0704 45.4302C76.0704 29.0938 62.8271 15.8505 46.4907 15.8505C30.1543 15.8505 16.911 29.0938 16.911 45.4302C16.911 61.7666 30.1543 75.0099 46.4907 75.0099Z" stroke="#E47F31" stroke-width="4.2827"/>
<path d="M45.5609 24.0879V46.4761L56.3118 54.7136" stroke="#E47F31" stroke-width="4.2827" stroke-linecap="round"/>
<path d="M19.8167 77.6251L26.5142 67.2664" stroke="#E47F31" stroke-width="4.2827" stroke-linecap="round"/>
<path d="M66.5979 67.2664L73.2955 77.6251" stroke="#E47F31" stroke-width="4.2827" stroke-linecap="round"/>
<path d="M13.2934 28.1849C11.5895 26.4353 10.636 24.0895 10.636 21.6472C10.636 19.2049 11.5895 16.8591 13.2934 15.1094C14.1211 14.2544 15.1122 13.5746 16.2079 13.1103C17.3035 12.646 18.4814 12.4067 19.6713 12.4067C20.8613 12.4067 22.0392 12.646 23.1348 13.1103C24.2305 13.5746 25.2216 14.2544 26.0493 15.1094L13.2934 28.1849Z" stroke="#E47F31" stroke-width="4.2827"/>
<path d="M79.717 28.1849C81.4209 26.4353 82.3744 24.0895 82.3744 21.6472C82.3744 19.2049 81.4209 16.8591 79.717 15.1094C78.8893 14.2544 77.8982 13.5746 76.8025 13.1103C75.7069 12.646 74.529 12.4067 73.3391 12.4067C72.1491 12.4067 70.9713 12.646 69.8756 13.1103C68.7799 13.5746 67.7888 14.2544 66.9611 15.1094L79.717 28.1849Z" stroke="#E47F31" stroke-width="4.2827"/>
</svg>
