<svg width="93" height="93" viewBox="0 0 93 93" fill="none" xmlns="http://www.w3.org/2000/svg">
<path d="M31.4974 61.3388H54.0018C54.6492 61.3388 55.27 61.0817 55.7277 60.6239C56.1854 60.1662 56.4426 59.5454 56.4426 58.8981L64.9417 27.7783C64.9417 27.4554 64.8776 27.1356 64.7531 26.8375C64.6287 26.5395 64.4463 26.2691 64.2166 26.0421C63.9868 25.8151 63.7143 25.6359 63.4148 25.515C63.1153 25.394 62.7948 25.3337 62.4719 25.3376H25.5844C24.9357 25.3376 24.3134 25.5942 23.8534 26.0516C23.3933 26.5089 23.1329 27.1297 23.1291 27.7783L15.8649 58.8981C15.8649 59.5454 16.1221 60.1662 16.5798 60.6239C17.0375 61.0817 17.6584 61.3388 18.3057 61.3388H21.4729" stroke="#E47F31" stroke-width="4.0932"/>
<path d="M60.5251 61.3387H55.4837L62.7479 36.2192H74.6902C74.8698 36.2188 75.0474 36.2576 75.2105 36.3329C75.3736 36.4082 75.5183 36.5181 75.6346 36.6551L80.8357 45.8079C81.0221 46.0213 81.1252 46.2947 81.1263 46.5779L76.2883 61.3387H71.0581" stroke="#E47F31" stroke-width="4.0932"/>
<path d="M26.6013 68.385C29.5782 68.385 31.9914 65.9393 31.9914 62.9224C31.9914 59.9054 29.5782 57.4597 26.6013 57.4597C23.6245 57.4597 21.2113 59.9054 21.2113 62.9224C21.2113 65.9393 23.6245 68.385 26.6013 68.385Z" stroke="#E47F31" stroke-width="4.0932"/>
<path d="M65.886 68.385C68.8629 68.385 71.2761 65.9393 71.2761 62.9224C71.2761 59.9054 68.8629 57.4597 65.886 57.4597C62.9092 57.4597 60.496 59.9054 60.496 62.9224C60.496 65.9393 62.9092 68.385 65.886 68.385Z" stroke="#E47F31" stroke-width="4.0932"/>
<path d="M33.7784 32.4854H9.98093" stroke="#E47F31" stroke-width="4.0932" stroke-linecap="round"/>
<path d="M29.0858 40.0983H12.2765" stroke="#E47F31" stroke-width="4.0932" stroke-linecap="round"/>
<path d="M30.7856 48.6699H4.6636" stroke="#E47F31" stroke-width="4.0932" stroke-linecap="round"/>
</svg>
